<svg width="22" height="16" viewBox="0 0 22 16" fill="none" xmlns="http://www.w3.org/2000/svg">
<g id="Group 58">
<path id="Vector" d="M10.6668 0H0V14.2221H1.77792C1.77792 12.5068 3.17361 11.1112 4.88882 11.1112C6.60441 11.1112 8.00009 12.5069 8.00009 14.2221H10.6668V0Z" fill="#82868F"/>
<path id="Vector_2" d="M18.6669 14.2221C18.6669 15.2041 17.871 16.0001 16.889 16.0001C15.9072 16.0001 15.1111 15.2041 15.1111 14.2221C15.1111 13.2404 15.9072 12.4442 16.889 12.4442C17.871 12.4442 18.6669 13.2404 18.6669 14.2221Z" fill="#82868F"/>
<path id="Vector_3" d="M6.6668 14.222C6.6668 15.204 5.87179 15.9999 4.88887 15.9999C3.90615 15.9999 3.11133 15.204 3.11133 14.222C3.11133 13.24 3.90634 12.4445 4.88887 12.4445C5.87179 12.4445 6.6668 13.2402 6.6668 14.222Z" fill="#82868F"/>
<path id="Vector_4" d="M20.5521 6.48536L17.6224 3.55566H12.4447V14.2225H13.7781C13.7781 12.5072 15.1737 11.1116 16.8889 11.1116C18.6045 11.1116 20.0002 12.5072 20.0002 14.2225H21.3336V8.37096C21.3336 7.6349 21.0348 6.96823 20.5523 6.48532L20.5521 6.48536Z" fill="#82868F"/>
</g>
</svg>
